# xmcd CD database file
#
# Track frame offsets:
#	150
#	20685
#	23485
#	47320
#	62197
#	94090
#	110382
#	149160
#	172847
#
# Disc length: 2429 seconds
#
# Revision: 4
# Processed by: cddbd v1.5.2PL0 Copyright (c) Steve Scherf et al.
# Submitted via: CDex 1.70beta2
#
DISCID=6f097b09
DTITLE=King, B.B. - The Best Of B.B. King
DYEAR=1973
DGENRE=Blues
TTITLE0=Hummingbird
TTITLE1=Cook County Jail Introduction
TTITLE2=How Blue Can You Get?
TTITLE3=Caldonia
TTITLE4=Sweet Sixteen
TTITLE5=Ain't Nobody Home
TTITLE6=Why I Sing The Blues
TTITLE7=The Thrill Is Gone
TTITLE8=Nobody Loves Me But My Mother
EXTD=YEAR: 1973
EXTT0=
EXTT1=
EXTT2=
EXTT3=
EXTT4=
EXTT5=
EXTT6=
EXTT7=
EXTT8=
PLAYORDER=
